<?xml version="1.0" encoding="UTF-8" standalone="no"?>
<!-- Created with Inkscape (http://www.inkscape.org/) -->

<svg
   version="1.1"
   id="svg2"
   width="2267.72"
   height="755.90533"
   viewBox="0 0 2267.72 755.90533"
   sodipodi:docname="Logo BRMANIA.ai"
   xmlns:inkscape="http://www.inkscape.org/namespaces/inkscape"
   xmlns:sodipodi="http://sodipodi.sourceforge.net/DTD/sodipodi-0.dtd"
   xmlns="http://www.w3.org/2000/svg"
   xmlns:svg="http://www.w3.org/2000/svg">
  <defs
     id="defs6">
    <clipPath
       clipPathUnits="userSpaceOnUse"
       id="clipPath16">
      <path
         d="M 0,566.929 H 1700.787 V 0 H 0 Z"
         id="path14" />
    </clipPath>
  </defs>
  <sodipodi:namedview
     id="namedview4"
     pagecolor="#ffffff"
     bordercolor="#000000"
     borderopacity="0.25"
     inkscape:showpageshadow="2"
     inkscape:pageopacity="0.0"
     inkscape:pagecheckerboard="0"
     inkscape:deskcolor="#d1d1d1" />
  <g
     id="g8"
     inkscape:groupmode="layer"
     inkscape:label="Logo BRMANIA"
     transform="matrix(1.3333333,0,0,-1.3333333,0,755.90533)">
    <g
       id="g10">
      <g
         id="g12"
         clip-path="url(#clipPath16)">
        <g
           id="g18"
           transform="translate(1321.873,421.9596)">
          <path
             d="m 0,0 c 0,14.402 -11.675,26.077 -26.077,26.077 -14.402,0 -26.077,-11.675 -26.077,-26.077 0,-14.403 11.675,-26.077 26.077,-26.077 C -11.675,-26.077 0,-14.403 0,0"
             style="fill:#66c430;fill-opacity:1;fill-rule:nonzero;stroke:none"
             id="path20" />
        </g>
        <g
           id="g22"
           transform="translate(492.5034,375.4254)">
          <path
             d="m 0,0 h -95.955 l -32.608,-184.915 h 38.084 c 7.696,0 14.28,5.525 15.616,13.103 l 8.427,47.792 h 21.647 l 13.11,-42.075 c 3.59,-11.516 13.995,-18.82 26.808,-18.82 h 34.275 l -21.19,68.008 C 29.769,-106.53 46.873,-85.846 51.077,-62.01 57.114,-27.762 34.248,0 0,0 m -0.376,-62.38 c -1.683,-9.538 -10.776,-17.267 -20.311,-17.267 h -37.924 l 6.087,34.531 h 37.927 c 9.535,0 15.9,-7.729 14.221,-17.264 M -181.63,0.095 h -96.059 l -32.606,-184.914 h 104.066 c 29.88,0 58.374,24.221 63.643,54.101 3.016,17.095 -2.235,32.324 -12.862,42.239 9.365,9.356 16.113,21.348 18.418,34.424 5.276,29.907 -14.693,54.15 -44.6,54.15 m -15.573,-124.099 c -1.54,-8.724 -9.862,-15.795 -18.582,-15.795 h -35.186 l 5.569,31.593 h 35.186 c 8.726,0 14.55,-7.071 13.013,-15.798 m 11.141,63.189 c -1.538,-8.727 -9.86,-15.798 -18.583,-15.798 h -35.183 l 5.569,31.592 h 35.186 c 8.723,0 14.548,-7.071 13.011,-15.794"
             style="fill:#fddd1c;fill-opacity:1;fill-rule:nonzero;stroke:none"
             id="path24" />
        </g>
        <g
           id="g26"
           transform="translate(1162.8887,376.0319)">
          <path
             d="m 0,0 h -0.327 c -17.993,0 -35.615,-6.362 -50.382,-16.949 -5.692,5.658 -13.526,9.223 -22.333,9.223 h -3.41 l -11.795,-66.893 c -0.006,-0.049 -0.024,-0.099 -0.034,-0.151 l -19.511,-110.66 h 0.006 l -0.016,-0.09 h 41.159 l 20.298,114.883 c 4.995,16.737 21.515,29.707 38.801,29.707 h 0.327 c 18.688,0 31.167,-15.15 27.873,-33.84 L 8.341,-144.5 c -3.986,-22.604 11.108,-40.93 33.713,-40.93 L 61.587,-74.77 C 68.868,-33.476 41.295,0 0,0 m 112.16,-7.726 h -8.93 l -29.244,-165.86 c -1.098,-6.226 3.689,-11.934 10.007,-11.934 h 29.047 l 25.666,145.565 c 3.136,17.799 -8.748,32.229 -26.546,32.229 M -388.695,0 h -0.325 c -21.409,0 -42.257,-9.044 -58.428,-23.462 C -458.536,-9.044 -476.195,0 -497.602,0 h -0.327 c -17.993,0 -35.618,-6.365 -50.388,-16.952 -5.692,5.658 -13.526,9.226 -22.332,9.226 h -3.412 l -11.822,-67.041 v -0.003 l -13.634,-77.323 -5.896,-33.427 h 41.159 l 20.289,114.821 c 4.973,16.743 21.54,29.769 38.816,29.769 h 0.33 c 18.564,0 31.025,-15.032 27.908,-33.565 -0.019,-0.093 -0.047,-0.182 -0.065,-0.275 l -19.511,-110.66 h 40.93 l 7.189,40.77 h 0.028 l 12.325,69.89 c 0.015,0.093 0.018,0.182 0.034,0.275 3.42,18.56 21.147,33.565 39.742,33.565 h 0.327 c 18.69,0 31.167,-15.15 27.873,-33.84 l -12.313,-69.73 c -3.988,-22.604 11.106,-40.93 33.71,-40.93 l 19.534,110.66 C -319.827,-33.476 -347.401,0 -388.695,0 m 276.8,-7.726 c -13.643,0 -25.947,-6.535 -33.728,-16.835 C -160.795,-9.322 -182.016,0 -206.238,0 c -51.141,0 -96.226,-41.51 -100.701,-92.713 -4.474,-51.206 33.358,-92.717 84.499,-92.717 16.294,0 31.963,4.229 45.909,11.628 -0.676,-6.195 4.124,-11.718 10.458,-11.718 h 28.345 l 31.353,177.794 z m -50.773,-84.987 c -2.494,-28.528 -27.701,-51.734 -56.191,-51.734 -28.492,0 -49.642,23.206 -47.148,51.734 2.491,28.525 27.698,51.734 56.189,51.734 28.49,0 49.64,-23.209 47.15,-51.734 m 510.772,84.987 c -13.64,0 -25.947,-6.535 -33.728,-16.835 C 299.207,-9.322 277.983,0 253.762,0 c -51.142,0 -96.227,-41.51 -100.7,-92.713 -4.475,-51.206 33.356,-92.717 84.497,-92.717 16.295,0 31.966,4.229 45.913,11.628 -0.68,-6.195 4.117,-11.718 10.454,-11.718 h 28.348 L 353.62,-7.726 Z m -50.773,-84.987 c -2.491,-28.528 -27.701,-51.734 -56.191,-51.734 -28.491,0 -49.641,23.206 -47.151,51.734 2.494,28.525 27.704,51.734 56.192,51.734 28.491,0 49.64,-23.209 47.15,-51.734"
             style="fill:#66c430;fill-opacity:1;fill-rule:nonzero;stroke:none"
             id="path28" />
        </g>
      </g>
    </g>
  </g>
</svg>
