<?xml version="1.0" encoding="UTF-8"?>
<!DOCTYPE svg PUBLIC "-//W3C//DTD SVG 1.1//EN" "http://www.w3.org/Graphics/SVG/1.1/DTD/svg11.dtd">
<!-- Creator: CorelDRAW 2021 (64 Bit) -->
<svg xmlns="http://www.w3.org/2000/svg" xml:space="preserve" width="68.4976mm" height="56.9391mm" version="1.1" style="shape-rendering:geometricPrecision; text-rendering:geometricPrecision; image-rendering:optimizeQuality; fill-rule:evenodd; clip-rule:evenodd"
viewBox="0 0 6841.23 5686.82"
 xmlns:xlink="http://www.w3.org/1999/xlink"
 xmlns:xodm="http://www.corel.com/coreldraw/odm/2003">
 <defs>
  <style type="text/css">
   <![CDATA[
    .str3 {stroke:black;stroke-width:11.42;stroke-miterlimit:22.9256}
    .str4 {stroke:black;stroke-width:14.27;stroke-miterlimit:22.9256}
    .str2 {stroke:black;stroke-width:15.86;stroke-linecap:round;stroke-linejoin:round;stroke-miterlimit:22.9256}
    .str1 {stroke:#D8892B;stroke-width:15.86;stroke-linecap:round;stroke-linejoin:round;stroke-miterlimit:22.9256}
    .str0 {stroke:black;stroke-width:25.36;stroke-linecap:round;stroke-linejoin:round;stroke-miterlimit:22.9256}
    .fil1 {fill:none;fill-rule:nonzero}
    .fil0 {fill:black;fill-rule:nonzero}
    .fil2 {fill:#FFC52B;fill-rule:nonzero}
    .fil4 {fill:#FFF50C;fill-rule:nonzero}
    .fil3 {fill:white;fill-rule:nonzero}
   ]]>
  </style>
 </defs>
 <g id="Camada_x0020_1">
  <metadata id="CorelCorpID_0Corel-Layer"/>
  <g id="Credit_x0020_Card.svg">
   <path class="fil0" d="M6828.03 2829.69l-4238.96 2425.36c-61.82,35.4 -162.8,35.4 -224.59,0l-2305.46 -1313.7c-30.86,-17.44 -46.34,-40.85 -46.34,-64.27 0,-23.42 0,-138.87 0,-138.87l4285.86 -2350.2 2530.01 1302.82 0 138.87 -0.52 0z"/>
   <path class="fil0" d="M1330.97 3023.06l-1318.29 715.15c0,0 0,115.45 0,138.87 0,22.89 15.48,46.3 46.34,64.27l2305.46 1313.7c30.88,17.96 71.73,26.68 112.59,26.68l0 -1825.1c-0.57,0 -562.85,-213.51 -1146.1,-433.56z"/>
   <path class="fil1 str0" d="M6828.03 2829.69l-4238.96 2425.39c-61.82,35.42 -162.8,35.42 -224.59,0l-2305.46 -1313.7c-30.86,-17.44 -46.34,-40.85 -46.34,-64.25 0,-23.42 0,-138.92 0,-138.92l4285.86 -2350.2 2530.01 1302.82 0 138.87 -0.52 0z"/>
   <path class="fil2" d="M6819.75 2691.86l-4230.68 2424.32c-61.82,35.4 -162.8,35.4 -224.59,0l-2305.46 -1313.71c-61.78,-35.41 -61.78,-92.6 0,-128.01l4231.24 -2424.28 2529.48 1441.68z"/>
   <path class="fil3" d="M3209.17 2447.52c65.49,34.89 190.93,24.24 280.28,-23.46l889.68 -474.9c89.33,-47.69 108.77,-114.5 43.29,-148.99 -65.54,-34.87 -190.97,-24.24 -280.31,23.47l-889.68 474.55c-89.3,47.69 -108.79,114.5 -43.26,149.33z"/>
   <path class="fil4" d="M1393.66 4083.53l360.31 204.78c49.67,28.31 130.26,28.31 179.91,0l663.27 -377.97c49.65,-28.34 49.65,-74.09 0,-102.41l-359.76 -204.8c-49.67,-28.29 -130.23,-28.29 -179.9,0l-663.26 378.01c-50.23,28.31 -50.23,74.05 -0.57,102.39z"/>
   <polyline class="fil1 str1" points="1693.73,4253.96 2265.38,3928.26 2621.29,3890.16 "/>
   <polyline class="fil1 str1" points="1482.53,4134.19 2054.74,3807.96 2057.49,3603.18 "/>
   <line class="fil1 str1" x1="1738.68" y1="4107.5" x2="2423.48" y2= "3717.55" />
   <line class="fil1 str1" x1="1633.08" y1="4048.11" x2="1843.89" y2= "4168.51" />
   <path class="fil1 str2" d="M1995.31 4253.45l602.58 -343.68c49.65,-28.29 49.65,-74.07 0,-102.36l-360.33 -204.28c-49.66,-28.29 -130.19,-28.29 -179.86,0l-663.3 378.01c-49.65,28.31 -49.65,74.05 0,102.39l360.37 204.78c49.67,28.31 130.2,28.31 179.85,0l60.69 -34.87z"/>
   <path class="fil3" d="M2290.62 4470.23c35.89,-20.71 105.43,-14.17 155.1,14.17l157.21 89.86c49.67,28.29 60.74,68.07 24.87,88.2 -35.9,20.71 -105.39,14.17 -155.06,-14.12l-157.25 -89.91c-49.15,-28.29 -60.69,-67.54 -24.87,-88.2z"/>
   <path class="fil3" d="M2500.3 4351.46c35.85,-20.71 105.39,-14.17 155.06,14.15l157.25 89.88c49.67,28.32 60.69,68.06 24.82,88.76 -35.85,20.71 -105.38,14.17 -155.05,-14.16l-157.26 -89.88c-49.67,-28.85 -60.69,-68.61 -24.82,-88.75z"/>
   <path class="fil3" d="M2710.11 4232.2c35.88,-20.66 105.39,-14.17 155.06,14.17l157.26 89.86c49.67,28.34 60.69,68.11 24.85,88.78 -35.88,20.71 -105.42,14.16 -155.09,-14.13l-157.22 -89.91c-49.67,-28.29 -60.74,-68.06 -24.86,-88.77z"/>
   <path class="fil3" d="M2919.62 4113.48c35.84,-20.71 105.38,-14.17 155.05,14.12l157.26 89.92c49.67,28.29 60.69,68.06 24.82,88.75 -35.85,20.68 -105.39,14.14 -155.06,-14.15l-157.26 -89.86c-49.67,-28.34 -60.68,-68.12 -24.81,-88.78z"/>
   <path class="fil3" d="M3248.99 3920.68c35.88,-20.66 105.41,-14.17 155.08,14.17l157.28 89.86c49.65,28.32 60.69,68.1 24.8,88.77 -35.88,20.7 -105.39,14.16 -155.06,-14.17l-157.25 -89.86c-49.67,-28.87 -60.69,-68.08 -24.85,-88.77z"/>
   <path class="fil3" d="M3458.83 3801.95c35.9,-20.71 105.39,-14.17 155.06,14.17l157.26 89.86c49.67,28.29 60.68,68.06 24.85,88.77 -35.88,20.71 -105.42,14.17 -155.09,-14.17l-157.26 -89.86c-49.67,-28.87 -60.69,-68.63 -24.82,-88.77z"/>
   <path class="fil3" d="M3668.33 3682.61c35.85,-20.7 105.39,-14.16 155.06,14.17l157.27 89.86c49.66,28.31 60.69,68.08 24.81,88.21 -35.85,20.71 -105.39,14.17 -155.06,-14.12l-157.26 -89.91c-49.67,-27.77 -60.69,-67.54 -24.82,-88.21z"/>
   <path class="fil3" d="M3877.67 3563.94c35.85,-20.68 105.39,-14.14 155.06,14.15l157.25 89.36c49.67,28.29 60.69,68.06 24.82,88.77 -35.85,20.69 -105.38,14.17 -155.05,-14.17l-157.26 -89.86c-49.11,-27.79 -60.69,-67.56 -24.82,-88.25z"/>
   <path class="fil3" d="M4207.54 3371.08c35.85,-20.71 105.39,-14.16 155.06,14.17l157.27 89.87c49.65,28.29 60.69,68.06 24.8,88.19 -35.84,20.71 -105.38,14.17 -155.05,-14.12l-157.26 -89.91c-49.67,-28.29 -60.69,-67.53 -24.82,-88.2z"/>
   <path class="fil3" d="M4417.36 3252.32c35.89,-20.66 105.43,-14.14 155.08,14.17l157.23 89.86c49.67,28.33 60.74,68.1 24.85,88.78 -35.88,20.69 -105.39,14.15 -155.04,-14.14l-157.27 -89.89c-49.66,-28.87 -60.69,-68.59 -24.85,-88.78z"/>
   <path class="fil3" d="M4626.38 3133.05c35.85,-20.66 105.38,-14.17 155.05,14.17l157.26 89.87c49.67,28.33 60.69,68.11 24.82,88.77 -35.85,20.71 -105.39,14.17 -155.06,-14.12l-157.25 -89.91c-49.1,-28.29 -60.69,-68.07 -24.82,-88.78z"/>
   <path class="fil3" d="M4836.06 3014.34c35.85,-20.71 105.39,-14.17 154.48,14.17l157.27 89.86c49.66,28.29 60.69,68.07 24.85,88.2 -35.89,20.71 -105.43,14.17 -155.08,-14.12l-157.28 -89.87c-49.09,-27.82 -60.12,-67.53 -24.24,-88.24z"/>
   <path class="fil3" d="M5166.07 2821.53c35.9,-20.66 105.39,-14.12 155.06,14.17l157.27 89.86c49.66,28.34 60.69,68.12 24.86,88.25 -35.9,20.71 -105.39,14.17 -155.06,-14.17l-157.26 -89.86c-49.67,-28.29 -60.69,-67.54 -24.87,-88.25z"/>
   <path class="fil3" d="M5377.97 2703.89c35.85,-20.69 105.39,-14.15 155.06,14.17l157.26 89.86c49.67,28.31 60.69,68.08 24.82,88.78 -35.85,20.71 -105.39,14.17 -155.06,-14.17l-157.26 -89.87c-49.67,-28.29 -60.69,-68.06 -24.82,-88.77z"/>
   <path class="fil1 str2" d="M3038.21 4860.19l-337.69 191.98 -111.45 63.43c-61.82,35.42 -162.8,35.42 -224.59,0l-2305.46 -1313.13c-61.78,-35.41 -61.78,-92.6 0,-128.01 0,0 4010.52,-2269.97 4120.88,-2342.56 110.36,-72.59 178.72,-73.12 248.31,-27.28 69.59,45.83 1130.35,665.33 1130.35,665.33l1265.01 720.87 -3785.37 2169.37z"/>
   <path class="fil3 str3" d="M5701.55 206.77l70.28 -190.3 70.33 190.3c10.47,28.35 32.78,50.73 61.17,61.23l189.91 70.42 -189.91 70.41c-28.39,10.52 -50.71,32.89 -61.17,61.25l-70.33 190.3 -70.28 -190.3c-10.47,-28.36 -32.83,-50.74 -61.17,-61.25l-189.97 -70.41 189.97 -70.42c28.34,-10.51 50.71,-32.88 61.17,-61.23z"/>
   <path class="fil3 str4" d="M787.26 1039.07l82.02 -222 82.02 222c29.72,80.59 93.2,144.13 173.74,173.99l221.54 82.12 -221.54 82.12c-80.54,29.85 -144.02,93.38 -173.74,173.95l-82.02 222.02 -82.02 -222.02c-29.77,-80.57 -93.22,-144.1 -173.79,-173.95l-221.49 -82.12 221.49 -82.12c80.57,-29.86 144.02,-93.4 173.79,-173.99z"/>
   <path class="fil3 str4" d="M6028.85 4761.3l114.47 -318.73 114.45 318.73c29.03,80.84 91.91,144.93 172.15,175.55l307.68 117.31 -307.68 117.29c-80.24,30.6 -143.11,94.74 -172.15,175.54l-114.45 318.72 -114.47 -318.72c-29.03,-80.8 -91.91,-144.94 -172.14,-175.54l-307.69 -117.29 307.69 -117.31c80.23,-30.62 143.1,-94.71 172.14,-175.55z"/>
  </g>
 </g>
</svg>
