<?xml version="1.0" encoding="UTF-8"?>
<!DOCTYPE svg PUBLIC "-//W3C//DTD SVG 1.1//EN" "http://www.w3.org/Graphics/SVG/1.1/DTD/svg11.dtd">
<!-- Creator: CorelDRAW 2021 (64 Bit) -->
<svg xmlns="http://www.w3.org/2000/svg" xml:space="preserve" width="67.0671mm" height="39.5487mm" version="1.1" style="shape-rendering:geometricPrecision; text-rendering:geometricPrecision; image-rendering:optimizeQuality; fill-rule:evenodd; clip-rule:evenodd"
viewBox="0 0 6705.68 3954.26"
 xmlns:xlink="http://www.w3.org/1999/xlink"
 xmlns:xodm="http://www.corel.com/coreldraw/odm/2003">
 <defs>
  <style type="text/css">
   <![CDATA[
    .str0 {stroke:black;stroke-width:47.6;stroke-linecap:round;stroke-linejoin:round;stroke-miterlimit:22.9256}
    .str2 {stroke:black;stroke-width:29.77;stroke-linecap:round;stroke-linejoin:round;stroke-miterlimit:22.9256}
    .str1 {stroke:#D8892B;stroke-width:35.27;stroke-linecap:round;stroke-linejoin:round;stroke-miterlimit:22.9256}
    .fil1 {fill:none;fill-rule:nonzero}
    .fil0 {fill:black;fill-rule:nonzero}
    .fil2 {fill:#FFC52B;fill-rule:nonzero}
    .fil4 {fill:#FFF50C;fill-rule:nonzero}
    .fil3 {fill:white;fill-rule:nonzero}
   ]]>
  </style>
 </defs>
 <g id="Camada_x0020_1">
  <metadata id="CorelCorpID_0Corel-Layer"/>
  <g id="_1575209201584">
   <path id="Shape" class="fil0" d="M6681.31 1535.31l-4140.78 2369.22c-60.37,34.56 -159.05,34.56 -219.42,0l-2252.04 -1283.32c-30.19,-16.98 -45.26,-39.85 -45.26,-62.78 0,-22.88 0,-135.62 0,-135.62l4186.61 -2295.79 2471.46 1272.62 0 135.67 -0.56 0 0 0 0 0z"/>
   <path id="Shape_x0023_1" class="fil0" d="M1311.54 1724.2l-1287.73 698.61c0,0 0,112.8 0,135.68 0,22.34 15.08,45.2 45.26,62.78l2252.04 1283.26c30.19,17.58 70.09,26.07 109.99,26.07l0 -1782.87c-0.54,0 -549.82,-208.57 -1119.57,-423.53l0 0 0 0z"/>
   <path id="Shape_x0023_2" class="fil1 str0" d="M6681.31 1535.27l-4140.78 2369.26c-60.37,34.56 -159.05,34.56 -219.42,0l-2252.04 -1283.32c-30.19,-16.98 -45.26,-39.85 -45.26,-62.78 0,-22.88 0,-135.62 0,-135.62l4186.61 -2295.83 2471.46 1272.66 0 135.63 -0.56 0 0 0 0 0z"/>
   <path id="Shape_x0023_3" class="fil2" d="M6673.23 1400.68l-4132.7 2368.18c-60.37,34.56 -159.05,34.56 -219.42,0l-2252.04 -1283.27c-60.39,-34.59 -60.39,-90.46 0,-125.02 1358.81,-772.84 2717.61,-1545.69 4076.43,-2318.53 111.55,-55.99 152.39,-16.53 214.54,19.43l2313.18 1338.42 0 0.8 0 0z"/>
   <path id="Shape_x0023_4" class="fil3" d="M3146.16 1162.02c63.97,34 186.52,23.66 273.76,-22.99l869.13 -463.87c87.24,-46.62 106.23,-111.85 42.26,-145.54 -64.01,-34.06 -186.53,-23.66 -273.8,22.93l-869.09 463.54c-87.28,46.62 -106.27,111.86 -42.26,145.93l0 0 0 0z"/>
   <path id="Shape_x0023_5" class="fil4" d="M1373.01 2760.13l351.94 200.04c48.55,27.68 127.23,27.68 175.73,0l647.94 -369.23c48.51,-27.69 48.51,-72.36 0,-100.03l-351.46 -200.03c-48.49,-27.69 -127.23,-27.69 -175.73,0l-647.88 369.22c-49.09,27.69 -49.09,72.36 -0.54,100.03l0 0 0 0z"/>
   <g id="Group">
    <g id="Line">
     <line id="Line_0" class="fil1 str1" x1="1642.99" y1="2922.11" x2="2201.4" y2= "2603.97" />
    </g>
    <g id="Line_x0023_1">
     <line id="Line_1" class="fil1 str1" x1="2201.4" y1="2615.81" x2="2549.07" y2= "2566.72" />
    </g>
   </g>
   <g id="Group_x0023_1">
    <g id="Line_x0023_2">
     <line id="Line_2" class="fil1 str1" x1="1436.54" y1="2805.08" x2="1995.48" y2= "2486.37" />
    </g>
    <g id="Line_x0023_3">
     <line id="Line_3" class="fil1 str1" x1="1995.48" y1="2486.37" x2="2044.58" y2= "2286.34" />
    </g>
   </g>
   <g id="Group_x0023_2">
    <g id="Line_x0023_4">
     <line id="Line_4" class="fil1 str1" x1="1686.62" y1="2779.01" x2="2355.59" y2= "2398.06" />
    </g>
   </g>
   <g id="Group_x0023_3">
    <g id="Line_x0023_5">
     <line id="Line_5" class="fil1 str1" x1="1583.7" y1="2721" x2="1789.56" y2= "2838.6" />
    </g>
   </g>
   <path id="Shape_x0023_6" class="fil1 str2" d="M1960.53 2926.13l588.65 -335.74c48.49,-27.65 48.49,-72.36 0,-100.03l-352.02 -199.49c-48.49,-27.69 -127.23,-27.69 -175.73,0l-647.88 369.22c-48.55,27.69 -48.55,72.36 0,100.03l351.94 200.04c48.55,27.68 127.23,27.68 175.74,0l59.3 -34.03 0 0 0 0z"/>
   <path id="Shape_x0023_7" class="fil3" d="M2248.9 3137.86c34.98,-20.23 102.92,-13.84 151.43,13.84l153.65 87.77c48.5,27.69 59.3,66.52 24.25,86.2 -35.04,20.23 -102.92,13.84 -151.42,-13.84l-153.66 -87.77c-47.95,-27.69 -59.29,-65.98 -24.25,-86.2l0 0 0 0z"/>
   <path id="Shape_x0023_8" class="fil3" d="M2453.68 3021.87c35.06,-20.23 102.95,-13.84 151.45,13.84l153.64 87.78c48.49,27.68 59.29,66.51 24.25,86.73 -34.99,20.23 -102.93,13.85 -151.43,-13.84l-153.66 -87.77c-48.49,-28.23 -59.29,-67.05 -24.25,-86.74l0 0 0 0z"/>
   <path id="Shape_x0023_9" class="fil3" d="M2658.58 2905.37c35,-20.22 102.92,-13.84 151.44,13.84l153.64 87.78c48.49,27.68 59.29,66.51 24.25,86.73 -35.04,20.23 -102.92,13.85 -151.48,-13.84l-153.6 -87.81c-48.55,-27.65 -59.29,-66.47 -24.25,-86.7l0 0 0 0z"/>
   <path id="Shape_x0023_10" class="fil3" d="M2863.38 2789.38c35.04,-20.22 102.98,-13.84 151.48,13.85l153.64 87.77c48.49,27.69 59.29,66.51 24.25,86.74 -35.04,20.22 -102.92,13.8 -151.48,-13.85l-153.6 -87.81c-48.53,-27.64 -59.3,-66.47 -24.29,-86.7l0 0 0 0z"/>
   <path id="Shape_x0023_11" class="fil3" d="M3185.19 2601.04c35.04,-20.22 102.98,-13.84 151.48,13.84l153.58 87.78c48.55,27.68 59.31,66.51 24.31,86.73 -35.04,20.23 -102.98,13.85 -151.48,-13.84l-153.64 -87.77c-48.49,-28.23 -59.29,-66.51 -24.25,-86.74l0 0 0 0z"/>
   <path id="Shape_x0023_12" class="fil3" d="M3390.03 2485.05c35.04,-20.22 102.92,-13.84 151.48,13.85l153.6 87.77c48.53,27.68 59.29,66.51 24.25,86.74 -35,20.22 -102.94,13.84 -151.44,-13.85l-153.64 -87.77c-48.49,-28.22 -59.29,-67.05 -24.25,-86.74l0 0 0 0z"/>
   <path id="Shape_x0023_13" class="fil3" d="M3594.87 2368.47c35.04,-20.22 102.92,-13.84 151.48,13.84l153.6 87.78c48.49,27.68 59.29,66.51 24.25,86.2 -35,20.22 -102.94,13.84 -151.45,-13.79l-153.63 -87.83c-48.5,-27.15 -59.3,-65.97 -24.25,-86.2l0 0 0 0z"/>
   <path id="Shape_x0023_14" class="fil3" d="M3799.17 2252.57c35.04,-20.23 102.92,-13.84 151.42,13.8l153.66 87.28c48.49,27.68 59.29,66.51 24.25,86.73 -35.06,20.23 -102.94,13.84 -151.45,-13.84l-153.63 -87.77c-47.96,-27.15 -59.29,-65.98 -24.25,-86.2l0 0 0 0z"/>
   <path id="Shape_x0023_15" class="fil3" d="M4121.46 2064.19c35.04,-20.25 102.98,-13.86 151.48,13.78l153.66 87.82c48.49,27.64 59.29,66.51 24.25,86.19 -35.04,20.25 -102.98,13.81 -151.49,-13.84l-153.65 -87.81c-48.49,-27.65 -59.24,-65.97 -24.25,-86.14l0 0 0 0z"/>
   <path id="Shape_x0023_16" class="fil3" d="M4326.3 1948.14c35.04,-20.18 102.98,-13.8 151.48,13.85l153.66 87.81c48.49,27.65 59.23,66.51 24.25,86.7 -35.04,20.22 -102.98,13.84 -151.49,-13.81l-153.65 -87.81c-48.49,-28.19 -59.29,-67.01 -24.25,-86.74l0 0 0 0z"/>
   <path id="Shape_x0023_17" class="fil3" d="M4530.59 1831.66c35.04,-20.17 102.98,-13.79 151.48,13.84l153.6 87.83c48.55,27.63 59.29,66.51 24.31,86.68 -35.04,20.22 -102.98,13.84 -151.49,-13.79l-153.65 -87.83c-47.96,-27.63 -59.29,-66.51 -24.25,-86.73l0 0 0 0z"/>
   <path id="Shape_x0023_18" class="fil3" d="M4735.43 1715.67c35.04,-20.23 102.94,-13.84 150.94,13.84l153.6 87.78c48.55,27.68 59.29,66.51 24.25,86.19 -34.98,20.23 -102.92,13.85 -151.43,-13.84l-153.65 -87.77c-47.96,-27.15 -58.75,-65.98 -23.71,-86.2l0 0 0 0z"/>
   <path id="Shape_x0023_19" class="fil3" d="M5057.79 1527.38c34.99,-20.22 102.93,-13.84 151.43,13.84l153.64 87.78c48.49,27.68 59.31,66.51 24.25,86.2 -35.04,20.22 -102.93,13.84 -151.48,-13.85l-153.59 -87.77c-48.54,-27.69 -59.31,-65.97 -24.25,-86.2l0 0 0 0z"/>
   <path id="Shape_x0023_20" class="fil3" d="M5264.73 1412.4c35.04,-20.17 102.98,-13.78 151.48,13.85l153.66 87.83c48.49,27.63 59.29,66.51 24.25,86.68 -35.04,20.22 -102.98,13.84 -151.49,-13.79l-153.59 -87.83c-48.55,-27.63 -59.3,-66.51 -24.31,-86.74l0 0 0 0z"/>
   <path id="Shape_x0023_21" class="fil1 str2" d="M2979.25 3518.76l-329.86 187.56 -108.86 62c-60.37,34.56 -159.05,34.56 -219.42,0l-2252.04 -1282.78c-60.39,-34.54 -60.39,-90.41 0,-125.03 0,0 3917.64,-2217.42 4025.45,-2288.31 107.84,-70.93 174.59,-71.43 242.57,-26.66 67.99,44.76 1104.2,649.96 1104.2,649.96l1235.72 704.14 -3697.76 2119.11 0 0 0 0z"/>
  </g>
 </g>
</svg>
