<?xml version="1.0" encoding="UTF-8"?>
<!DOCTYPE svg PUBLIC "-//W3C//DTD SVG 1.1//EN" "http://www.w3.org/Graphics/SVG/1.1/DTD/svg11.dtd">
<!-- Creator: CorelDRAW 2021 (64 Bit) -->
<svg xmlns="http://www.w3.org/2000/svg" xml:space="preserve" width="69.822mm" height="41.741mm" version="1.1" style="shape-rendering:geometricPrecision; text-rendering:geometricPrecision; image-rendering:optimizeQuality; fill-rule:evenodd; clip-rule:evenodd"
viewBox="0 0 6973.67 4169"
 xmlns:xlink="http://www.w3.org/1999/xlink"
 xmlns:xodm="http://www.corel.com/coreldraw/odm/2003">
 <defs>
  <style type="text/css">
   <![CDATA[
    .str0 {stroke:black;stroke-width:26.43;stroke-linejoin:round;stroke-miterlimit:22.9256}
    .fil0 {fill:black;fill-rule:nonzero}
    .fil3 {fill:#B3B3B3;fill-rule:nonzero}
    .fil1 {fill:#FFC52B;fill-rule:nonzero}
    .fil2 {fill:white;fill-rule:nonzero}
   ]]>
  </style>
 </defs>
 <g id="Camada_x0020_1">
  <metadata id="CorelCorpID_0Corel-Layer"/>
  <g id="Image.svg">
   <polygon class="fil0 str0" points="2913.18,4155.79 13.21,2489.33 13.21,2341.81 6960.46,1679.65 6960.46,1827.17 "/>
   <polygon class="fil1 str0" points="2913.18,4008.26 13.21,2341.81 4060.52,13.21 6960.46,1679.68 "/>
   <polygon class="fil2 str0" points="2900.02,3856.52 277.06,2349.22 4073.63,164.86 6696.52,1672.13 "/>
   <polygon class="fil0" points="4703.03,1091.18 3774.58,557.65 4091.09,375.58 5019.44,909.1 "/>
   <path class="fil3" d="M4169.29 1223.99l-737.48 -423.79c-21.81,-12.5 -23.37,-31.87 -3.59,-43.26 19.77,-11.39 53.46,-10.47 75.29,2.03l737.48 423.79c21.78,12.49 23.34,31.9 3.58,43.29 -19.75,11.38 -53.48,10.47 -75.28,-2.06z"/>
   <path class="fil3" d="M4755.08 1845.87l-1571.25 -902.94c-21.81,-12.52 -23.37,-31.91 -3.63,-43.3 19.77,-11.39 53.5,-10.46 75.32,2.03l1571.27 902.96c21.77,12.52 23.33,31.9 3.59,43.28 -19.77,11.39 -53.5,10.48 -75.3,-2.03z"/>
   <path class="fil3" d="M4125.21 1764.37l-1185.31 -681.15c-21.77,-12.52 -23.33,-31.91 -3.58,-43.3 19.76,-11.39 53.49,-10.46 75.29,2.04l1185.3 681.19c21.81,12.49 23.36,31.89 3.61,43.26 -19.75,11.38 -53.48,10.49 -75.31,-2.04z"/>
   <path class="fil3" d="M4090.62 2228.15l-1571.23 -902.95c-21.81,-12.49 -23.37,-31.87 -3.62,-43.26 19.77,-11.39 53.5,-10.47 75.32,2.04l1571.23 902.94c21.81,12.49 23.37,31.91 3.62,43.3 -19.77,11.37 -53.5,10.46 -75.32,-2.07z"/>
   <path class="fil3" d="M3460.65 2146.75l-1185.3 -681.19c-21.79,-12.5 -23.35,-31.91 -3.59,-43.26 19.76,-11.39 53.49,-10.47 75.28,2.03l1185.3 681.19c21.81,12.49 23.37,31.87 3.62,43.26 -19.76,11.39 -53.49,10.46 -75.31,-2.03z"/>
   <path class="fil3" d="M2796.32 2529l-1185.3 -681.2c-21.81,-12.48 -23.37,-31.89 -3.59,-43.28 19.76,-11.39 53.47,-10.47 75.29,2.06l1185.3 681.16c21.82,12.53 23.37,31.9 3.62,43.29 -19.79,11.39 -53.5,10.47 -75.32,-2.03z"/>
   <path class="fil3" d="M2999.62 2923.89l-1630.4 -936.94c-21.82,-12.48 -23.37,-31.89 -3.58,-43.28 19.75,-11.39 53.45,-10.47 75.28,2.03l1630.4 936.97c21.78,12.49 23.34,31.87 3.59,43.26 -19.77,11.38 -53.5,10.47 -75.29,-2.04z"/>
   <path class="fil3" d="M2355.92 2834.47l-1230.59 -707.17c-21.81,-12.52 -23.37,-31.9 -3.61,-43.29 19.76,-11.39 53.49,-10.47 75.32,2.04l1230.58 707.19c21.81,12.49 23.37,31.87 3.61,43.26 -19.76,11.39 -53.49,10.46 -75.31,-2.03z"/>
   <path class="fil3" d="M2584.78 1923.79l-553.2 -317.93c-21.81,-12.52 -23.37,-31.91 -3.62,-43.3 19.76,-11.39 53.49,-10.46 75.31,2.04l553.21 317.94c21.78,12.52 23.33,31.89 3.59,43.28 -19.77,11.39 -53.5,10.47 -75.29,-2.03z"/>
   <path class="fil3" d="M3661.98 2542.89l-510.87 -293.59c-21.79,-12.48 -23.35,-31.87 -3.59,-43.26 19.76,-11.38 53.49,-10.46 75.28,2.04l510.87 293.55c21.82,12.52 23.37,31.9 3.62,43.29 -19.76,11.39 -53.49,10.47 -75.31,-2.03z"/>
   <path class="fil0" d="M2812.24 3605.46l-636.54 -365.85c-38.9,-22.32 -41.73,-56.88 -6.43,-77.28l17.16 -9.83c35.36,-20.3 95.47,-18.68 134.36,3.65l636.54 365.85c38.9,22.36 41.73,56.89 6.43,77.28l-17.15 9.83c-35.37,20.31 -95.48,18.69 -134.37,-3.65z"/>
   <path class="fil3" d="M5058.79 1739.2l-606.77 -348.73c-21.81,-12.49 -23.37,-31.87 -3.61,-43.26 19.79,-11.38 53.49,-10.47 75.31,2.04l606.77 348.68c21.81,12.52 23.37,31.91 3.61,43.3 -19.79,11.39 -53.49,10.46 -75.31,-2.03z"/>
   <path class="fil0" d="M6188.82 1580.93c10.56,6.02 11.93,15.16 2.95,20.37l-57.8 33.51c47.36,45.38 48.98,99.67 1.01,137.35 -8.21,6.43 -25.69,6.24 -37.19,-0.36l-58.01 -33.23c-8.97,-5.13 -11.8,-12.78 -6.15,-18.14 21.09,-20.24 12.78,-49.37 -22.44,-69.6 -1.68,-0.98 -3.53,-1.97 -5.36,-2.89 -38.18,-19.44 -92.02,-21.85 -124.97,-5.62 -39.11,19.19 -35.37,56.14 6.69,80.23 93.1,53.37 104.87,133.83 26.26,179.4 -64.64,37.45 -170.42,39.92 -257.78,9.98l-54.83 31.81c-8.98,5.2 -24.7,4.44 -35.3,-1.62l-57.36 -32.85c-10.54,-6.05 -11.93,-15.19 -2.99,-20.33l54.83 -31.81c-47.34,-45.37 -48.96,-99.66 -0.98,-137.34 8.17,-6.43 25.62,-6.24 37.18,0.35l58.01 33.29c8.97,5.14 11.73,12.72 6.15,18.15 -21.11,20.24 -12.77,49.37 22.45,69.61 0.63,0.35 1.33,0.79 2.02,1.14 38.05,20.86 94.01,24.16 128.15,7.51 39.19,-19.13 35.53,-56.06 -6.69,-80.29 -93.08,-53.4 -104.81,-133.89 -26.1,-179.49 64.63,-37.45 170.41,-39.88 257.77,-9.98l57.82 -33.49c8.88,-5.2 24.7,-4.44 35.26,1.62l57.4 32.85 0 -0.13z"/>
  </g>
 </g>
</svg>
