<?xml version="1.0" encoding="UTF-8"?>
<!DOCTYPE svg PUBLIC "-//W3C//DTD SVG 1.1//EN" "http://www.w3.org/Graphics/SVG/1.1/DTD/svg11.dtd">
<!-- Creator: CorelDRAW 2021 (64 Bit) -->
<svg xmlns="http://www.w3.org/2000/svg" xml:space="preserve" width="70.541mm" height="41.4315mm" version="1.1" style="shape-rendering:geometricPrecision; text-rendering:geometricPrecision; image-rendering:optimizeQuality; fill-rule:evenodd; clip-rule:evenodd"
viewBox="0 0 7045.57 4138.14"
 xmlns:xlink="http://www.w3.org/1999/xlink"
 xmlns:xodm="http://www.corel.com/coreldraw/odm/2003">
 <defs>
  <style type="text/css">
   <![CDATA[
    .str0 {stroke:black;stroke-width:21.14;stroke-miterlimit:22.9256}
    .fil0 {fill:black;fill-rule:nonzero}
    .fil4 {fill:#BDBDBD;fill-rule:nonzero}
    .fil3 {fill:#E6E6E6;fill-rule:nonzero}
    .fil1 {fill:#FFC52B;fill-rule:nonzero}
    .fil2 {fill:white;fill-rule:nonzero}
   ]]>
  </style>
 </defs>
 <g id="Camada_x0020_1">
  <metadata id="CorelCorpID_0Corel-Layer"/>
  <g id="Clipboard.svg">
   <path class="fil0" d="M3161.08 4138.09c-62.56,1.01 -124.37,-14.08 -179.48,-43.83l-2899.61 -1678.72c-24.11,-9.23 -44.88,-25.56 -59.51,-46.9 -14.64,-21.31 -22.48,-46.58 -22.48,-72.45 0,-25.88 7.84,-51.16 22.48,-72.5 14.63,-21.31 35.4,-37.67 59.51,-46.9l3621.28 -2097.43c56,-27.59 117.55,-41.92 179.96,-41.92 62.38,0 123.93,14.33 179.93,41.92l2900.56 1678.71c23.08,10.66 42.88,27.4 57.27,48.4 14.4,21.01 22.9,45.52 24.58,70.96 -1.97,25.37 -10.56,49.76 -24.93,70.72 -14.39,20.95 -34.03,37.73 -56.92,48.64l-3626.85 2096.54c-54.01,29.21 -114.38,44.59 -175.79,44.76z"/>
   <path class="fil0" d="M6998.1 1821.48c-13.41,-16.32 -29.84,-29.96 -48.36,-40.11l-2899.61 -1678.7c-51.69,-25.94 -108.68,-39.43 -166.46,-39.43 -57.81,0 -114.8,13.49 -166.48,39.43l-3622.2 2096.53c-13.74,8.18 -26.53,17.85 -38.12,28.89l-30.69 0 0 65.3c2.44,20.2 10.07,39.38 22.13,55.74 12.06,16.34 28.15,29.27 46.68,37.51l2899.62 1678.73c51.82,26.07 108.97,39.67 166.93,39.67 57.97,0 115.14,-13.6 166.93,-39.67l3621.28 -2097.47c18.65,-8.09 34.85,-20.96 46.93,-37.36 12.09,-16.36 19.64,-35.65 21.91,-55.9l0 -65.27 -20.49 12.12z"/>
   <path class="fil1 str0" d="M101.35 2315.94l-1.13 -0.67 -1.23 -0.41c-17.71,-5.86 -33.13,-17.19 -44.06,-32.35 -10.94,-15.14 -16.82,-33.41 -16.82,-52.12 0,-18.75 5.88,-37 16.82,-52.14 10.93,-15.16 26.35,-26.49 44.06,-32.35l1.23 -0.41 1.13 -0.67 3621.9 -2096.32c49.82,-24.94 104.74,-37.92 160.43,-37.92 55.68,0 110.62,12.98 160.44,37.92l2899.29 1678.52 1.14 0.64 1.25 0.4c17.69,5.87 33.13,17.2 44.05,32.39 10.93,15.16 16.84,33.39 16.84,52.14 0,18.71 -5.91,36.94 -16.84,52.13 -10.92,15.16 -26.36,26.49 -44.05,32.34l-1.25 0.42 -1.14 0.63 -3620.96 2096.33c-49.95,25.11 -105.03,38.15 -160.88,38.15 -55.87,0 -110.96,-13.04 -160.91,-38.15l-2899.31 -1678.5z"/>
   <polygon class="fil2" points="3300.68,3835.98 354.55,2130.2 3958.16,43.01 6904.3,1748.77 "/>
   <polygon class="fil3" points="3270.87,3740.71 518.19,2146.85 3747.02,277.9 6499.71,1871.72 "/>
   <polygon class="fil2" points="6088.73,2074.17 3399.27,516.68 3576.89,414.11 6266.35,1970.62 "/>
   <polygon class="fil2" points="5687.84,2305.54 2999.33,749 3176.94,645.5 5865.46,2202.95 "/>
   <polygon class="fil2" points="5287.92,2537.73 2598.46,980.24 2777,877.66 5465.53,2434.18 "/>
   <polygon class="fil2" points="4887.19,2768.94 2198.68,1212.41 2376.29,1108.91 5065.75,2666.34 "/>
   <polygon class="fil2" points="4487.31,3001.26 1798.75,1443.78 1976.38,1341.19 4664.92,2897.71 "/>
   <polygon class="fil2" points="4087.29,3232.47 1397.87,1675.94 1575.48,1572.4 4264.94,3129.88 "/>
   <polygon class="fil2" points="3686.58,3463.78 998.04,1907.23 1175.66,1804.65 3865.11,3361.18 "/>
   <polygon class="fil2" points="3286.67,3696.04 597.23,2139.5 775.77,2036 3464.32,3593.44 "/>
   <path class="fil4" d="M3763.83 441.22l665.84 385.16c9.62,5.07 20.31,7.71 31.14,7.71 10.88,0 21.57,-2.64 31.17,-7.71 3.72,-1.21 6.95,-3.59 9.27,-6.78 2.28,-3.18 3.52,-7.01 3.52,-10.95 0,-3.91 -1.24,-7.74 -3.52,-10.91 -2.32,-3.21 -5.55,-5.58 -9.27,-6.79l-664.94 -388.91c-9.75,-4.57 -20.39,-6.95 -31.13,-6.95 -10.78,0 -21.4,2.38 -31.17,6.95 -5.17,-0.12 -10.18,1.83 -13.95,5.41 -3.75,3.58 -5.93,8.52 -6.02,13.7 -0.13,5.2 1.8,10.23 5.38,13.99 3.57,3.77 8.48,5.94 13.67,6.06z"/>
   <path class="fil4" d="M6264.55 1813.97l-238.09 -138.01c-9.73,-4.59 -20.39,-6.94 -31.13,-6.94 -10.79,0 -21.41,2.35 -31.18,6.94 -16.72,10.25 -17.66,26.11 0,36.38l238.09 138.01c9.74,4.59 20.4,6.97 31.14,6.97 10.79,0 21.4,-2.38 31.17,-6.97 3.61,-1.43 6.72,-3.97 8.91,-7.2 2.19,-3.24 3.37,-7.07 3.37,-10.97 0,-3.94 -1.18,-7.74 -3.37,-10.98 -2.19,-3.27 -5.3,-5.77 -8.91,-7.23z"/>
   <path class="fil4" d="M3572.27 548.45l447.32 259.29c9.61,5.04 20.31,7.71 31.15,7.71 10.84,0 21.56,-2.67 31.13,-7.71 3.65,-1.46 6.75,-3.97 8.95,-7.23 2.18,-3.24 3.36,-7.04 3.36,-10.98 0,-3.9 -1.18,-7.73 -3.36,-10.97 -2.2,-3.24 -5.3,-5.77 -8.95,-7.2l-447.3 -258.34c-9.6,-5.06 -20.29,-7.72 -31.17,-7.72 -10.84,0 -21.52,2.66 -31.13,7.72 -3.71,1.23 -6.94,3.6 -9.26,6.77 -2.29,3.19 -3.53,7.01 -3.53,10.95 0,3.93 1.24,7.75 3.53,10.93 2.32,3.19 5.55,5.56 9.26,6.78z"/>
   <path class="fil4" d="M6072.85 1924.01l-238.09 -137.08c-9.61,-5.07 -20.3,-7.71 -31.13,-7.71 -10.85,0 -21.57,2.64 -31.15,7.71 -16.74,9.32 -17.69,26.13 0,35.45l238.07 138.01c9.6,5.07 20.29,7.71 31.13,7.71 10.88,0 21.56,-2.64 31.17,-7.71 3.62,-1.46 6.73,-3.97 8.91,-7.2 2.2,-3.24 3.37,-7.07 3.37,-10.97 0,-3.94 -1.17,-7.74 -3.37,-11.01 -2.18,-3.24 -5.29,-5.73 -8.91,-7.2z"/>
   <path class="fil4" d="M3375.05 663.13l1095.5 633.25c9.61,5.07 20.3,7.71 31.14,7.71 10.87,0 21.56,-2.64 31.17,-7.71 17.66,-9.33 17.66,-25.18 0,-35.43l-1095.5 -633.25c-9.62,-5.07 -20.31,-7.71 -31.14,-7.71 -10.89,0 -21.57,2.64 -31.17,7.71 -3.34,1.58 -6.18,4.09 -8.15,7.22 -2.01,3.15 -3.05,6.77 -3.05,10.49 0,3.74 1.04,7.36 3.05,10.51 1.97,3.13 4.81,5.63 8.15,7.21z"/>
   <path class="fil4" d="M5873.03 2038.77l-238.09 -138.03c-9.6,-5.04 -20.3,-7.71 -31.14,-7.71 -10.85,0 -21.52,2.67 -31.13,7.71 -3.65,1.46 -6.76,3.97 -8.94,7.22 -2.2,3.24 -3.38,7.07 -3.38,10.99 0,3.9 1.18,7.73 3.38,10.97 2.18,3.24 5.29,5.77 8.94,7.2l238.05 137.11c9.62,5.04 20.31,7.7 31.14,7.7 10.88,0 21.57,-2.66 31.17,-7.7 3.72,-1.24 6.95,-3.61 9.27,-6.78 2.28,-3.21 3.52,-7.01 3.52,-10.95 0,-3.94 -1.24,-7.77 -3.52,-10.93 -2.32,-3.18 -5.55,-5.55 -9.27,-6.8z"/>
   <path class="fil4" d="M3175.91 779.8l819.3 474.7c9.6,5.07 20.3,7.71 31.14,7.71 10.87,0 21.56,-2.64 31.17,-7.71 3.71,-1.25 6.94,-3.59 9.25,-6.79 2.3,-3.17 3.53,-7 3.53,-10.94 0,-3.93 -1.23,-7.74 -3.53,-10.94 -2.31,-3.18 -5.54,-5.55 -9.25,-6.76l-819.31 -474.73c-9.61,-5.06 -20.29,-7.7 -31.17,-7.7 -10.85,0 -21.52,2.64 -31.13,7.7 -3.72,1.24 -6.98,3.63 -9.27,6.78 -2.28,3.18 -3.52,7.01 -3.52,10.95 0,3.94 1.24,7.77 3.52,10.95 2.29,3.18 5.55,5.54 9.27,6.78z"/>
   <path class="fil4" d="M5672.99 2155.28l-237.13 -137.08c-9.61,-5.07 -20.33,-7.71 -31.17,-7.71 -10.85,0 -21.54,2.64 -31.14,7.71 -3.74,1.23 -6.97,3.62 -9.26,6.78 -2.32,3.18 -3.56,7.01 -3.56,10.95 0,3.93 1.24,7.74 3.56,10.94 2.29,3.18 5.52,5.55 9.26,6.78l237.13 138.01c9.62,5.07 20.31,7.71 31.15,7.71 10.87,0 21.56,-2.64 31.16,-7.71 13.96,-10.25 13.96,-26.1 0,-36.38z"/>
   <path class="fil4" d="M2974.21 895.39l446.41 258.36c9.6,5.03 20.3,7.7 31.14,7.7 10.88,0 21.56,-2.67 31.17,-7.7 3.71,-1.24 6.94,-3.63 9.25,-6.78 2.3,-3.18 3.53,-7.01 3.53,-10.95 0,-3.94 -1.23,-7.77 -3.53,-10.95 -2.31,-3.18 -5.54,-5.54 -9.25,-6.78l-447.32 -259.28c-9.58,-4.63 -20.08,-7 -30.7,-7 -10.63,0 -21.12,2.37 -30.7,7 -17.66,10.28 -17.66,26.14 0,36.38z"/>
   <path class="fil4" d="M5473.97 2270.97l-237.13 -138c-9.94,-4.6 -20.7,-6.99 -31.61,-6.99 -10.95,0 -21.73,2.39 -31.62,6.99 -3.65,1.43 -6.76,3.96 -8.94,7.19 -2.2,3.24 -3.37,7.07 -3.37,10.98 0,3.94 1.17,7.73 3.37,10.97 2.18,3.28 5.29,5.78 8.94,7.23l234.35 137.08c9.74,4.57 20.4,6.95 31.14,6.95 10.78,0 21.4,-2.38 31.17,-6.95 21.37,-9.32 21.37,-25.18 3.71,-35.45z"/>
   <path class="fil4" d="M2773.45 1011.01l650.97 378.63c9.61,5.07 20.3,7.71 31.14,7.71 10.84,0 21.53,-2.64 31.14,-7.71 3.74,-1.2 6.97,-3.59 9.25,-6.78 2.32,-3.18 3.57,-7.01 3.57,-10.91 0,-3.94 -1.25,-7.77 -3.57,-10.95 -2.28,-3.2 -5.51,-5.58 -9.25,-6.78l-650.98 -379.59c-9.89,-4.6 -20.67,-6.97 -31.61,-6.97 -10.91,0 -21.69,2.37 -31.62,6.97 -3.59,1.56 -6.63,4.15 -8.75,7.45 -2.1,3.3 -3.18,7.13 -3.08,11.07 0.13,3.91 1.36,7.71 3.66,10.89 2.28,3.2 5.45,5.6 9.13,6.97z"/>
   <path class="fil4" d="M5274.01 2386.63l-238.06 -138.05c-9.74,-4.56 -20.39,-6.94 -31.14,-6.94 -10.79,0 -21.4,2.38 -31.17,6.94 -17.67,10.28 -17.67,26.13 0,36.38l237.14 138.04c9.77,4.56 20.39,6.95 31.17,6.95 10.76,0 21.41,-2.39 31.14,-6.95 18.61,-10.28 18.61,-23.3 0.92,-36.37z"/>
   <path class="fil4" d="M2577.15 1124.88l598.9 346.93c9.74,4.57 20.39,6.94 31.14,6.94 10.79,0 21.4,-2.37 31.17,-6.94 3.62,-1.46 6.72,-3.97 8.92,-7.2 2.18,-3.24 3.36,-7.07 3.36,-11 0,-3.92 -1.18,-7.75 -3.36,-10.99 -2.2,-3.24 -5.3,-5.73 -8.92,-7.19l-598.9 -341.35c-9.61,-5.04 -20.29,-7.7 -31.13,-7.7 -10.89,0 -21.56,2.66 -31.18,7.7 -2.47,1.72 -4.52,4.04 -5.93,6.69 -1.42,2.7 -2.16,5.68 -2.16,8.69 0,3.05 0.74,6.03 2.16,8.73 1.41,2.66 3.47,4.97 5.93,6.68z"/>
   <path class="fil4" d="M5077.83 2500.37l-238.09 -138.01c-9.74,-4.59 -20.39,-6.98 -31.14,-6.98 -10.78,0 -21.4,2.39 -31.17,6.98 -3.61,1.44 -6.71,3.97 -8.91,7.2 -2.19,3.24 -3.37,7.07 -3.37,10.98 0,3.94 1.18,7.73 3.37,10.97 2.2,3.28 5.3,5.78 8.91,7.23l238.09 138.01c9.61,5.06 20.31,7.7 31.15,7.7 10.84,0 21.56,-2.64 31.16,-7.7 3.62,-1.47 6.72,-3.97 8.92,-7.2 2.18,-3.24 3.36,-7.07 3.36,-10.97 0,-3.94 -1.18,-7.75 -3.36,-11.01 -2.2,-3.24 -5.3,-5.74 -8.92,-7.2z"/>
   <path class="fil4" d="M2374.46 1242.32l447.32 258.32c9.62,5.07 20.3,7.73 31.14,7.73 10.85,0 21.53,-2.66 31.14,-7.73 16.74,-9.32 16.74,-25.18 0,-35.43l-447.29 -259.27c-9.77,-4.56 -20.39,-6.95 -31.17,-6.95 -10.76,0 -21.37,2.39 -31.14,6.95 -3.62,1.46 -6.72,3.97 -8.92,7.19 -2.18,3.24 -3.36,7.07 -3.36,11.02 0,3.9 1.18,7.73 3.36,10.97 2.2,3.24 5.3,5.73 8.92,7.2z"/>
   <path class="fil4" d="M4875.11 2617.92l-238.07 -137.99c-9.77,-4.57 -20.39,-6.95 -31.17,-6.95 -10.74,0 -21.39,2.38 -31.13,6.95 -3.62,1.45 -6.73,3.96 -8.91,7.19 -2.22,3.24 -3.37,7.07 -3.37,10.98 0,3.93 1.15,7.73 3.37,11 2.18,3.24 5.29,5.74 8.91,7.19l238.06 138.01c9.76,4.6 20.39,6.98 31.16,6.98 10.76,0 21.4,-2.38 31.15,-6.98 17.66,-10.25 17.66,-26.1 0,-36.38z"/>
   <path class="fil4" d="M2175.4 1357.93l1109.43 641.65c9.62,5.07 20.31,7.71 31.17,7.71 10.85,0 21.54,-2.64 31.14,-7.71 17.67,-9.32 16.74,-26.13 0,-35.45l-1109.43 -642.57c-9.61,-5.04 -20.33,-7.7 -31.17,-7.7 -10.85,0 -21.52,2.66 -31.14,7.7 -3.64,1.45 -6.75,3.96 -8.94,7.23 -2.19,3.24 -3.37,7.03 -3.37,10.97 0,3.91 1.18,7.74 3.37,10.98 2.19,3.24 5.3,5.74 8.94,7.19z"/>
   <path class="fil4" d="M4676.02 2733.58l-238.09 -138.04c-9.62,-5.07 -20.3,-7.71 -31.14,-7.71 -10.85,0 -21.56,2.64 -31.17,7.71 -3.62,1.46 -6.72,3.97 -8.91,7.2 -2.19,3.26 -3.37,7.07 -3.37,11.01 0,3.9 1.18,7.74 3.37,10.97 2.19,3.24 5.29,5.73 8.91,7.2l238.09 140.83c9.61,5.08 20.3,7.7 31.14,7.7 10.88,0 21.55,-2.62 31.17,-7.7 5.16,0 10.15,-2.07 13.79,-5.74 3.68,-3.68 5.74,-8.65 5.74,-13.85 0,-5.16 -2.07,-10.18 -5.74,-13.83 -3.65,-3.67 -8.63,-5.73 -13.79,-5.73z"/>
   <path class="fil4" d="M2970.53 1982.84l-937.43 -542.77c-9.61,-5.07 -20.3,-7.75 -31.14,-7.75 -10.85,0 -21.53,2.68 -31.13,7.75 -3.66,1.42 -6.76,3.97 -8.96,7.2 -2.18,3.24 -3.36,7.07 -3.36,10.97 0,3.93 1.18,7.74 3.36,10.98 2.2,3.26 5.3,5.76 8.96,7.23l937.39 542.77c9.74,4.56 20.4,6.94 31.15,6.94 10.77,0 21.4,-2.38 31.16,-6.94 19.54,-10.28 19.54,-26.13 0,-36.38z"/>
   <path class="fil4" d="M4471.48 2851.93l-238.06 -138.01c-9.61,-5.06 -20.29,-7.73 -31.13,-7.73 -10.89,0 -21.56,2.67 -31.18,7.73 -3.62,1.43 -6.72,3.97 -8.9,7.2 -2.2,3.24 -3.37,7.07 -3.37,10.97 0,3.94 1.17,7.75 3.37,10.99 2.18,3.26 5.28,5.76 8.9,7.22l238.09 137.09c9.62,5.04 20.3,7.7 31.14,7.7 10.85,0 21.56,-2.66 31.14,-7.7 17.7,-9.33 17.7,-21.46 0,-35.46z"/>
   <path class="fil4" d="M1774.53 1590.18l814.66 471.9c9.77,5.07 20.62,7.71 31.62,7.71 11.01,0 21.85,-2.64 31.62,-7.71 3.72,-1.23 6.95,-3.62 9.26,-6.78 2.28,-3.2 3.52,-7.01 3.52,-10.95 0,-3.93 -1.24,-7.76 -3.52,-10.94 -2.31,-3.17 -5.54,-5.55 -9.26,-6.78l-815.59 -472.82c-9.73,-4.6 -20.39,-6.98 -31.14,-6.98 -10.79,0 -21.4,2.38 -31.17,6.98 -17.66,6.49 -17.66,26.09 0,36.37z"/>
   <path class="fil4" d="M4274.3 2965.77l-238.06 -138.04c-9.58,-4.62 -20.07,-7.03 -30.69,-7.03 -10.63,0 -21.12,2.41 -30.7,7.03 -17.66,10.25 -17.66,26.11 0,36.38l237.15 138c9.75,4.6 20.39,6.99 31.16,6.99 10.75,0 21.4,-2.39 31.14,-6.99 17.66,-10.24 17.66,-26.09 0,-36.34z"/>
   <path class="fil4" d="M2727.81 2306.42l-1093.64 -633.23c-9.6,-5.08 -20.33,-7.71 -31.16,-7.71 -10.85,0 -21.53,2.63 -31.15,7.71 -17.65,10.23 -17.65,26.09 0,36.36l1093.65 633.25c9.61,5.07 20.3,7.71 31.13,7.71 10.89,0 21.57,-2.64 31.17,-7.71 17.67,-12.12 17.67,-27.97 0,-36.38z"/>
   <path class="fil4" d="M4072.55 3083.26l-238.09 -138.03c-9.62,-5.04 -20.3,-7.71 -31.14,-7.71 -10.85,0 -21.53,2.67 -31.13,7.71 -17.71,10.27 -17.71,26.13 0,36.38l240.85 137.09c9.6,5.06 20.29,7.73 31.13,7.73 10.88,0 21.56,-2.67 31.17,-7.73 3.65,-1.5 6.73,-4.11 8.81,-7.49 2.07,-3.36 3.03,-7.29 2.7,-11.26 -0.31,-3.94 -1.87,-7.67 -4.43,-10.7 -2.58,-3.01 -6.02,-5.1 -9.86,-5.99z"/>
   <path class="fil4" d="M2368.75 2326.9l-929.95 -539.98c-9.6,-5.07 -20.33,-7.71 -31.16,-7.71 -10.85,0 -21.53,2.64 -31.15,7.71 -3.74,1.23 -6.97,3.58 -9.25,6.78 -2.32,3.18 -3.57,7.01 -3.57,10.94 0,3.94 1.25,7.75 3.57,10.95 2.28,3.18 5.51,5.55 9.25,6.76l929.94 540.93c9.61,5.08 20.33,7.71 31.17,7.71 10.85,0 21.53,-2.63 31.15,-7.71 3.65,-1.46 6.74,-3.97 8.94,-7.19 2.18,-3.27 3.36,-7.07 3.36,-11.02 0,-3.9 -1.18,-7.73 -3.36,-10.97 -2.2,-3.24 -5.29,-5.73 -8.94,-7.2z"/>
   <path class="fil4" d="M3873.53 3198l-238.09 -137.09c-9.62,-5.06 -20.31,-7.7 -31.15,-7.7 -10.84,0 -21.56,2.64 -31.16,7.7 -3.72,1.24 -6.95,3.59 -9.27,6.79 -2.28,3.18 -3.52,7.01 -3.52,10.94 0,3.94 1.24,7.73 3.52,10.95 2.32,3.17 5.55,5.54 9.27,6.78l238.09 142.68c9.6,5.06 20.3,7.69 31.14,7.69 10.85,0 21.55,-2.63 31.17,-7.69 5.41,0 10.62,-2.16 14.45,-6 3.84,-3.87 5.99,-9.07 5.99,-14.52 0,-5.42 -2.16,-10.65 -5.99,-14.48 -3.84,-3.88 -9.04,-6.03 -14.45,-6.03z"/>
   <path class="fil4" d="M1950.31 2320.37l-718.87 -416.88c-9.74,-4.56 -20.39,-6.94 -31.14,-6.94 -10.78,0 -21.4,2.38 -31.17,6.94 -3.61,1.46 -6.72,3.97 -8.91,7.2 -2.19,3.24 -3.37,7.07 -3.37,10.97 0,3.94 1.18,7.74 3.37,11.01 2.19,3.24 5.3,5.73 8.91,7.2l718.88 415.93c9.6,5.07 20.29,7.73 31.13,7.73 10.88,0 21.56,-2.66 31.17,-7.73 16.75,-9.32 16.75,-26.1 0,-35.43z"/>
   <path class="fil4" d="M3669.91 3315.5l-238.09 -138.05c-9.75,-4.56 -20.39,-6.94 -31.14,-6.94 -10.79,0 -21.4,2.38 -31.17,6.94 -17.67,10.29 -17.67,26.13 0,36.38l238.09 138.03c9.74,4.57 20.39,6.95 31.14,6.95 10.78,0 21.4,-2.38 31.17,-6.95 3.61,-1.45 6.72,-3.96 8.91,-7.19 2.19,-3.24 3.37,-7.07 3.37,-10.98 0,-3.93 -1.18,-7.76 -3.37,-11 -2.19,-3.24 -5.3,-5.74 -8.91,-7.19z"/>
   <path class="fil4" d="M970.15 2055.55l447.32 258.33c9.42,5.06 19.98,7.7 30.69,7.7 10.7,0 21.25,-2.64 30.66,-7.7 3.75,-1.21 6.98,-3.59 9.26,-6.78 2.32,-3.18 3.56,-7.01 3.56,-10.95 0,-3.9 -1.24,-7.74 -3.56,-10.91 -2.28,-3.2 -5.51,-5.58 -9.26,-6.78l-441.71 -259.29c-9.61,-5.06 -20.33,-7.7 -31.17,-7.7 -10.85,0 -21.53,2.64 -31.14,7.7 -22.32,7.46 -22.32,26.11 -4.65,36.38z"/>
   <path class="fil4" d="M3470.76 3431.11l-238.06 -138c-9.61,-5.08 -20.3,-7.71 -31.17,-7.71 -10.85,0 -21.53,2.63 -31.13,7.71 -17.67,10.24 -17.67,26.09 0,36.37l238.05 137.08c9.6,5.08 20.3,7.71 31.17,7.71 10.85,0 21.52,-2.63 31.14,-7.71 3.74,-1.23 6.97,-3.61 9.25,-6.78 2.33,-3.17 3.57,-7.01 3.57,-10.94 0,-3.94 -1.24,-7.73 -3.57,-10.94 -2.28,-3.18 -5.51,-5.54 -9.25,-6.79z"/>
   <path class="fil4" d="M1724.4 2651.48l-891.83 -516.64c-9.77,-4.6 -20.39,-6.97 -31.17,-6.97 -10.76,0 -21.37,2.37 -31.14,6.97 -3.62,1.43 -6.72,3.96 -8.92,7.19 -2.18,3.24 -3.36,7.07 -3.36,10.98 0,3.94 1.18,7.73 3.36,10.97 2.2,3.28 5.3,5.78 8.92,7.23l891.83 516.64c9.77,4.6 20.39,6.98 31.17,6.98 10.76,0 21.4,-2.38 31.14,-6.98 17.67,-8.36 17.67,-26.09 0,-36.37z"/>
   <path class="fil4" d="M3269.1 3546.83l-238.06 -138.01c-9.74,-4.56 -20.4,-6.94 -31.13,-6.94 -10.79,0 -21.4,2.38 -31.17,6.94 -3.63,1.46 -6.73,3.97 -8.92,7.2 -2.19,3.24 -3.36,7.07 -3.36,10.97 0,3.94 1.17,7.74 3.36,11.01 2.19,3.24 5.29,5.73 8.92,7.2l238.09 138.01c9.73,4.58 20.39,6.97 31.13,6.97 10.78,0 21.4,-2.39 31.14,-6.97 3.65,-1.43 6.76,-3.97 8.94,-7.2 2.2,-3.24 3.37,-7.07 3.37,-10.97 0,-3.92 -1.17,-7.75 -3.37,-10.99 -2.18,-3.26 -5.29,-5.76 -8.94,-7.22z"/>
   <polygon class="fil0" points="5647.75,1151.8 4869.36,701.37 4869.36,611.83 5013.53,618.36 5883.98,926.11 5883.98,1098.66 5812.37,1056.71 "/>
   <polygon class="fil1 str0" points="5647.75,1048.58 4894.7,611.89 5105.59,490.35 5858.67,926.17 "/>
  </g>
 </g>
</svg>
