<?xml version="1.0" encoding="UTF-8"?>
<!DOCTYPE svg PUBLIC "-//W3C//DTD SVG 1.1//EN" "http://www.w3.org/Graphics/SVG/1.1/DTD/svg11.dtd">
<!-- Creator: CorelDRAW 2021 (64 Bit) -->
<svg xmlns="http://www.w3.org/2000/svg" xml:space="preserve" width="70.4488mm" height="42.1144mm" version="1.1" style="shape-rendering:geometricPrecision; text-rendering:geometricPrecision; image-rendering:optimizeQuality; fill-rule:evenodd; clip-rule:evenodd"
viewBox="0 0 7036.35 4206.34"
 xmlns:xlink="http://www.w3.org/1999/xlink"
 xmlns:xodm="http://www.corel.com/coreldraw/odm/2003">
 <defs>
  <style type="text/css">
   <![CDATA[
    .str0 {stroke:black;stroke-width:26.43;stroke-linejoin:round;stroke-miterlimit:22.9256}
    .fil0 {fill:black;fill-rule:nonzero}
    .fil3 {fill:#B3B3B3;fill-rule:nonzero}
    .fil1 {fill:#FFC52B;fill-rule:nonzero}
    .fil2 {fill:white;fill-rule:nonzero}
   ]]>
  </style>
 </defs>
 <g id="Camada_x0020_1">
  <metadata id="CorelCorpID_0Corel-Layer"/>
  <g id="bill.svg">
   <polygon class="fil0 str0" points="2939.26,4193.14 13.21,2509.29 13.21,2360.25 7023.14,1691.16 7023.14,1840.23 "/>
   <polygon class="fil1 str0" points="2939.29,4044.1 22.99,2366.11 4106.8,13.2 7023.1,1691.25 "/>
   <polygon class="fil2 str0" points="2926.44,3891.15 288.71,2373.37 4119.53,166.26 6757.26,1683.96 "/>
   <polygon class="fil0" points="5233.94,1580.44 4300.35,1043.26 4619.65,859.31 5553.3,1396.46 "/>
   <path class="fil3" d="M4199.47 1480.12l-948.43 -545.69c-21.9,-12.65 -23.4,-32.15 -3.49,-43.67 19.95,-11.49 53.91,-10.63 75.86,2l948.4 545.69c21.94,12.65 23.43,32.15 3.49,43.68 -19.96,11.48 -53.91,10.62 -75.83,-2.01z"/>
   <path class="fil0" d="M1030.28 2597.32l-279.58 -160.85c-51.4,-29.58 -55.03,-75.44 -8.18,-102.43l255 -146.92c46.84,-26.96 126.53,-24.93 177.86,4.62l279.57 160.85c51.41,29.58 55.02,75.44 8.19,102.4l-254.99 146.95c-46.87,26.96 -126.54,24.89 -177.87,-4.62z"/>
   <path class="fil0" d="M2838.76 3637.93l-640.16 -368.33c-39.07,-22.51 -41.86,-57.36 -6.18,-77.95l17.32 -9.92c35.67,-20.53 96.17,-18.97 135.29,3.55l640.15 368.3c39.1,22.5 41.86,57.36 6.18,77.94l-17.31 9.93c-35.68,20.52 -96.18,18.98 -135.29,-3.52z"/>
   <path class="fil3" d="M5423.7 2184.39l-610.23 -351.13c-21.94,-12.62 -23.43,-32.16 -3.49,-43.64 19.95,-11.51 53.91,-10.66 75.82,1.97l610.27 351.14c21.91,12.64 23.43,32.16 3.49,43.67 -19.96,11.48 -53.9,10.62 -75.86,-2.01z"/>
   <path class="fil3" d="M3951.23 1623.1l-948.43 -545.69c-21.91,-12.61 -23.43,-32.15 -3.49,-43.64 19.95,-11.51 53.9,-10.66 75.86,2.01l948.39 545.68c21.95,12.62 23.43,32.16 3.5,43.65 -19.95,11.51 -53.91,10.65 -75.83,-2.01z"/>
   <path class="fil3" d="M5175.34 2327.52l-610.23 -351.11c-21.94,-12.64 -23.43,-32.16 -3.49,-43.67 19.95,-11.51 53.9,-10.66 75.82,2l610.25 351.14c21.92,12.61 23.45,32.15 3.51,43.64 -19.96,11.51 -53.91,10.66 -75.86,-2z"/>
   <path class="fil3" d="M3702.97 1766.25l-948.4 -545.69c-21.94,-12.65 -23.44,-32.16 -3.49,-43.67 19.94,-11.48 53.9,-10.63 75.82,2l948.42 545.7c21.92,12.61 23.44,32.15 3.49,43.66 -19.95,11.49 -53.89,10.62 -75.84,-2z"/>
   <path class="fil3" d="M4926.97 2470.6l-610.22 -351.13c-21.95,-12.62 -23.45,-32.16 -3.5,-43.68 19.95,-11.47 53.91,-10.62 75.83,2l610.25 351.14c21.92,12.61 23.44,32.15 3.49,43.68 -19.95,11.47 -53.91,10.62 -75.85,-2.01z"/>
   <path class="fil3" d="M3454.59 1909.37l-948.39 -545.69c-21.94,-12.61 -23.44,-32.15 -3.5,-43.64 19.96,-11.52 53.91,-10.66 75.83,1.97l948.43 545.69c21.91,12.65 23.44,32.15 3.49,43.67 -19.95,11.51 -53.91,10.66 -75.86,-2z"/>
   <path class="fil3" d="M4678.73 2613.71l-610.23 -351.14c-21.94,-12.62 -23.43,-32.16 -3.49,-43.63 19.92,-11.52 53.87,-10.66 75.82,1.97l610.27 351.13c21.9,12.65 23.39,32.16 3.49,43.67 -19.95,11.48 -53.91,10.65 -75.86,-2z"/>
   <path class="fil3" d="M3030.37 2153.8l-948.43 -545.69c-21.91,-12.62 -23.43,-32.16 -3.5,-43.64 19.95,-11.51 53.91,-10.66 75.86,1.97l948.4 545.7c21.94,12.64 23.43,32.14 3.49,43.66 -19.96,11.51 -53.9,10.66 -75.82,-2z"/>
   <path class="fil3" d="M4254.45 2858.18l-610.21 -351.14c-21.95,-12.61 -23.45,-32.15 -3.5,-43.66 19.92,-11.49 53.9,-10.64 75.83,1.99l610.25 351.14c21.9,12.62 23.43,32.16 3.49,43.67 -19.95,11.49 -53.91,10.62 -75.86,-2z"/>
   <path class="fil3" d="M2781.87 2296.88l-948.43 -545.68c-21.91,-12.62 -23.43,-32.16 -3.49,-43.68 19.95,-11.48 53.9,-10.62 75.86,2l948.39 545.7c21.95,12.64 23.43,32.15 3.5,43.67 -19.95,11.48 -53.91,10.62 -75.83,-2.01z"/>
   <path class="fil3" d="M4006.09 3001.29l-610.23 -351.14c-21.94,-12.61 -23.43,-32.15 -3.49,-43.64 19.92,-11.51 53.9,-10.66 75.83,2.01l610.25 351.09c21.91,12.66 23.43,32.16 3.5,43.68 -19.95,11.51 -53.91,10.66 -75.86,-2z"/>
   <path class="fil3" d="M2533.61 2440.02l-948.4 -545.72c-21.95,-12.62 -23.45,-32.16 -3.5,-43.63 19.95,-11.53 53.9,-10.66 75.83,1.99l948.42 545.7c21.92,12.61 23.44,32.15 3.49,43.63 -19.95,11.52 -53.9,10.66 -75.84,-1.97z"/>
   <path class="fil3" d="M3757.72 3144.31l-610.22 -351.14c-21.95,-12.64 -23.43,-32.15 -3.5,-43.67 19.93,-11.48 53.87,-10.66 75.83,2.01l610.26 351.13c21.91,12.62 23.43,32.16 3.49,43.64 -19.95,11.51 -53.9,10.66 -75.86,-1.97z"/>
   <path class="fil3" d="M2285.23 2583.02l-948.4 -545.7c-21.94,-12.61 -23.43,-32.15 -3.49,-43.66 19.96,-11.49 53.9,-10.64 75.83,1.99l948.43 545.7c21.9,12.65 23.43,32.15 3.49,43.66 -19.95,11.49 -53.91,10.64 -75.86,-1.99z"/>
   <path class="fil3" d="M3509.37 3287.35l-610.23 -351.13c-21.94,-12.62 -23.43,-32.16 -3.49,-43.64 19.92,-11.51 53.87,-10.66 75.82,1.97l610.27 351.13c21.9,12.65 23.39,32.16 3.49,43.68 -19.96,11.48 -53.91,10.62 -75.86,-2.01z"/>
  </g>
 </g>
</svg>
