<?xml version="1.0" encoding="UTF-8"?>
<!DOCTYPE svg PUBLIC "-//W3C//DTD SVG 1.1//EN" "http://www.w3.org/Graphics/SVG/1.1/DTD/svg11.dtd">
<!-- Creator: CorelDRAW 2021 (64 Bit) -->
<svg xmlns="http://www.w3.org/2000/svg" xml:space="preserve" width="68.9157mm" height="43.127mm" version="1.1" style="shape-rendering:geometricPrecision; text-rendering:geometricPrecision; image-rendering:optimizeQuality; fill-rule:evenodd; clip-rule:evenodd"
viewBox="0 0 6869.39 4298.82"
 xmlns:xlink="http://www.w3.org/1999/xlink"
 xmlns:xodm="http://www.corel.com/coreldraw/odm/2003">
 <defs>
  <style type="text/css">
   <![CDATA[
    .str1 {stroke:black;stroke-width:21.1;stroke-miterlimit:22.9256}
    .str0 {stroke:black;stroke-width:12.7;stroke-miterlimit:22.9256}
    .fil0 {fill:black;fill-rule:nonzero}
    .fil1 {fill:#FFC52B;fill-rule:nonzero}
    .fil2 {fill:white;fill-rule:nonzero}
    .fil4 {fill:#E6E6E6;fill-opacity:0.501961}
    .fil3 {fill:#E6E6E6;fill-rule:nonzero;fill-opacity:0.501961}
   ]]>
  </style>
 </defs>
 <g id="Camada_x0020_1">
  <metadata id="CorelCorpID_0Corel-Layer"/>
  <g id="Identity.svg">
   <polygon class="fil0 str0" points="2590.89,4291.48 20.52,2811.87 20.52,2688.02 4323.35,131.49 6862.53,1700.66 6846.49,1817.39 "/>
   <polygon class="fil1 str1" points="2590.89,4172.54 20.52,2692.93 4323.35,12.55 6846.49,1698.45 "/>
   <polygon class="fil2 str1" points="2601.87,4014.69 305.47,2686 4298.12,208.32 6555.33,1707.91 "/>
   <polygon class="fil3" points="4143.49,2393.74 3097.84,1741.91 4693.78,768.26 5731.68,1451.96 "/>
   <polygon class="fil3" points="2208.6,3541.11 1154.64,2927.04 2668.06,2003.71 3715.77,2647.24 "/>
   <path class="fil0" d="M2793.63 2706.22c-1.62,-0.69 -2.87,-1.96 -3.56,-3.56 -20.66,-33.28 -49.61,-60.56 -84.02,-79.17 -40.56,-24.45 -85.04,-41.58 -131.46,-50.61 -8.62,-1.78 -12.5,-7.44 -8.94,-12.8 2.75,-2.96 6.25,-5.12 10.12,-6.28 3.85,-1.15 7.96,-1.24 11.87,-0.27 50.61,9.83 99.12,28.47 143.36,55.06 37.25,20.35 68.56,50.11 90.82,86.33 2.97,5.05 -2.08,11.02 -10.98,13.08 -2.84,0.87 -5.84,1.19 -8.78,0.87 -2.96,-0.31 -5.83,-1.22 -8.42,-2.65z"/>
   <path class="fil0" d="M2424.36 2603.24c-1.35,-0.57 -2.47,-1.54 -3.25,-2.75 -0.82,-1.22 -1.22,-2.65 -1.22,-4.1 0,-5.65 8.29,-10.42 17.51,-10.71 84.7,-6.05 169.33,12.34 243.98,52.99 62.31,37.5 92.6,89.28 86.67,146.14 0,5.36 -8.33,10.11 -17.51,10.43 -9.21,0.29 -16.05,-4.19 -15.74,-9.52 5.06,-52.7 -21.97,-98.25 -78.37,-132.19 -67.49,-36.52 -143.98,-53.04 -220.53,-47.62 -4.03,0.13 -7.99,-0.78 -11.55,-2.67z"/>
   <path class="fil0" d="M2588.8 2909.25c-6.24,-3.59 -5.65,-9.83 0,-14.01 101.8,-61.01 109.8,-155.95 16.92,-211.93 -15.05,-8.9 -30.97,-16.17 -47.52,-21.72 -7.99,-2.69 -10.09,-8.62 -4.74,-13.68 3.25,-2.53 7.03,-4.26 11.08,-4.97 4.03,-0.72 8.17,-0.46 12.08,0.78 18.76,6.19 36.8,14.47 53.73,24.7 105.37,63.42 96.16,171.18 -19.3,240.2 -3.4,1.87 -7.17,2.9 -11.04,3.03 -3.88,0.1 -7.72,-0.74 -11.2,-2.4z"/>
   <path class="fil0" d="M2228.76 2694.02c-6.24,-3.88 -5.65,-10.12 1.47,-14.3 62.26,-34.85 132.06,-53.95 203.34,-55.66 24.69,-0.76 49.38,0.44 73.89,3.59 8.62,0 13.64,6.56 10.99,11.89 -2.5,3.09 -5.78,5.43 -9.5,6.78 -3.72,1.38 -7.71,1.68 -11.57,0.97 -21.58,-2.66 -43.3,-3.65 -65,-2.96 -63.1,1.41 -124.88,18.34 -179.89,49.38 -3.63,2 -7.69,3.09 -11.83,3.16 -4.13,0.02 -8.21,-0.95 -11.9,-2.84z"/>
   <path class="fil0" d="M2134.04 2770.84c-1.65,-0.99 -3,-2.43 -3.84,-4.18 -2.08,-5.34 3.57,-11.01 12.46,-12.8l18.71 -3.57c38.43,-8.19 75.42,-22.06 109.83,-41.09 48.54,-28.03 103.34,-43.38 159.38,-44.64 52.61,-3.31 105.08,8.37 151.36,33.62 18.57,8.4 33.93,22.61 43.82,40.46 9.91,17.86 13.81,38.44 11.09,58.67 0,5.65 -9.21,9.83 -18.39,9.83 -9.21,0 -15.73,-4.76 -14.86,-10.12 2.22,-17.1 -1.1,-34.49 -9.4,-49.6 -8.33,-15.08 -21.25,-27.13 -36.9,-34.34 -38.99,-21.8 -83.33,-32.1 -127.91,-29.76 -47.37,1.22 -93.66,14.21 -134.74,37.81 -38.95,21.83 -80.99,37.6 -124.66,46.71l-19.62 3.87c-5.36,1.62 -11.13,1.29 -16.33,-0.88z"/>
   <path class="fil0" d="M2419.9 2982.21c-1.04,-0.43 -1.97,-1.16 -2.69,-2.02 -0.72,-0.91 -1.22,-1.93 -1.41,-3.07 -0.21,-1.12 -0.11,-2.3 0.23,-3.36 0.37,-1.1 0.97,-2.1 1.8,-2.88l33.53 -35.41c27,-23.38 56.01,-44.31 86.67,-62.5l6.84 -4.19c14.39,-8.37 27.31,-19.01 38.28,-31.57 3.02,-2.65 6.68,-4.56 10.61,-5.48 3.94,-0.95 8.06,-0.88 11.96,0.15 7.99,2.37 11.27,8.02 6.84,13.09 -12.92,14.7 -28.16,27.18 -45.14,36.93l-6.21 4.15c-29.08,17.29 -56.49,37.21 -81.93,59.54l-32.65 34.53c-3.09,2.65 -6.84,4.47 -10.81,5.3 -4,0.82 -8.14,0.63 -12.05,-0.55 -1.4,-0.7 -2.71,-1.59 -3.87,-2.66z"/>
   <path class="fil0" d="M2330.62 2996.76c-1.07,-0.44 -2.01,-1.14 -2.73,-2 -0.71,-0.91 -1.22,-1.96 -1.41,-3.09 -0.21,-1.13 -0.12,-2.28 0.23,-3.37 0.38,-1.06 0.97,-2.06 1.8,-2.84l26.14 -27.98c43.42,-44.37 92.15,-83.16 145.11,-115.48 48.1,-29.78 51.67,-73.24 8.02,-99.12 -26.14,-12.81 -55.01,-18.99 -84.11,-17.98 -29.07,0.97 -57.47,9.08 -82.7,23.63 -69.34,38.4 -145.61,62.47 -224.39,70.83 -9.2,0 -17.79,-2.09 -18.97,-7.44 -1.2,-5.36 5.02,-10.7 14.22,-11.91 72.75,-7.91 143.31,-29.82 207.77,-64.57 32.44,-18.7 68.97,-29.14 106.38,-30.44 37.39,-1.28 74.55,6.6 108.2,22.99 55.83,33.33 51.05,89.28 -10.09,127.09 -50.58,31.19 -97.28,68.28 -139.2,110.42l-26.1 28.29c-3.1,2.59 -6.78,4.38 -10.72,5.17 -3.94,0.86 -7.99,0.7 -11.86,-0.4 -1.99,-0.19 -3.91,-0.78 -5.61,-1.8z"/>
   <path class="fil0" d="M2094.3 2937.79c-1.09,-0.6 -2.05,-1.4 -2.81,-2.37 -0.78,-0.98 -1.35,-2.09 -1.65,-3.28 0,-5.34 6.25,-10.43 15.14,-11.3 122.88,-9.71 242.24,-45.86 349.92,-105.96 20.79,-12.21 22.26,-31.26 3.59,-42.58 -11.07,-5.37 -23.29,-8.02 -35.59,-7.65 -12.31,0.38 -24.32,3.72 -35.07,9.73 -89.75,49.77 -189.19,79.52 -291.47,87.24 -9.21,0 -17.2,-2.69 -18.11,-8.06 -0.88,-5.33 5.93,-10.43 15.15,-11.6 95.15,-7 187.68,-34.51 271.26,-80.64 18.02,-10.28 38.22,-15.96 58.88,-16.66 20.69,-0.68 41.24,3.72 59.85,12.78 29.7,18.73 29.7,50.3 -5.61,70.84 -113.8,63.34 -239.81,101.49 -369.56,111.92 -4.76,0.7 -9.64,-0.12 -13.93,-2.4z"/>
   <path class="fil0" d="M2356.43 2829.51l-1.78 0c-5.06,-4.16 -2.69,-10.72 4.74,-13.98 17.35,-7.53 34.22,-16.18 50.46,-25.89 3.62,-1.97 7.65,-3 11.73,-3 4.09,0 8.11,1.03 11.71,3 6.24,4.16 6.52,9.81 0,14.26 -17.83,11.15 -36.38,21.08 -55.52,29.78 -3.61,1.01 -7.46,1.16 -11.17,0.44 -3.68,-0.71 -7.18,-2.3 -10.17,-4.62z"/>
   <path class="fil0" d="M2076.48 2899.73c-1.1,-0.6 -2.02,-1.47 -2.74,-2.49 -0.73,-1.04 -1.2,-2.19 -1.41,-3.44 0,-5.36 6.24,-10.43 15.44,-11.33 72.79,-6.49 144.49,-21.7 213.71,-45.24 3.66,-1.43 7.65,-1.9 11.55,-1.34 3.91,0.6 7.59,2.18 10.72,4.62 3.83,4.78 0,11.02 -7.75,13.72 -73.2,24.94 -149.14,41.02 -226.16,47.92 -4.59,0.66 -9.27,-0.19 -13.36,-2.4z"/>
   <path class="fil0" d="M2147.79 2969.37c-1.01,-0.47 -1.87,-1.12 -2.59,-1.96 -0.73,-0.81 -1.26,-1.74 -1.59,-2.77 -1.78,-5.09 4.46,-10.75 13.36,-12.22 78.06,-12.5 167.13,-36.02 168,-36.33 3.1,-0.97 6.34,-1.29 9.59,-0.94 3.22,0.38 6.3,1.41 9.12,3.03 0.9,0.63 1.67,1.47 2.18,2.46 0.53,0.97 0.78,2.09 0.78,3.19 0,1.12 -0.25,2.22 -0.78,3.21 -0.51,0.97 -1.29,1.81 -2.18,2.44 0,0 -13.66,14.3 -25.84,28l-33.52 36.31c-3.12,2.53 -6.81,4.28 -10.72,5.11 -3.93,0.82 -7.98,0.69 -11.85,-0.37 -8.02,-2.37 -10.69,-8.33 -5.94,-13.08l33.25 -36.03c0,-1.77 2.66,-3.27 3.84,-4.74 -34.11,8.34 -83.98,19.33 -131.18,27.06 -4.78,0.76 -9.69,-0.06 -13.93,-2.37z"/>
   <path class="fil0" d="M4030.38 3096.41c8.31,4.74 7.12,13.09 -2.08,18.76 -4.87,2.47 -10.28,3.78 -15.74,3.78 -5.46,0 -10.85,-1.31 -15.73,-3.78 -85.76,-54.1 -163.85,-119.6 -232.09,-194.68 -44.34,59.07 -96.23,112.02 -154.35,157.47 -4.54,3.16 -9.78,5.18 -15.25,5.84 -5.48,0.68 -11.04,0 -16.2,-1.97 -9.52,-3.87 -10.98,-12.2 -3,-18.44 62.54,-48.83 117.46,-106.73 162.98,-171.79 -29.47,-34.03 -56.36,-70.24 -80.46,-108.33 -89.04,-140.8 -81.92,-242.3 52.54,-262.21 134.47,-19.96 189.67,59.51 159.1,188.69 -16.61,63.84 -44.24,124.28 -81.65,178.61 70.31,80.58 151.77,150.66 241.93,208.05zm-204.81 -386.94c26.42,-113.1 -15.44,-175.32 -108.64,-161.35 -93.19,13.98 -94.65,97.36 -16.01,223.54 18.57,29.53 38.98,57.87 61.12,84.83 28.53,-45.23 49.98,-94.63 63.52,-146.42l0 -0.6zm228.85 103.28c-1.51,7.44 -12.77,13.4 -24.95,13.4 -12.17,0 -21.34,-5.96 -19.58,-13.4l32.35 -159.85c2.97,-14.89 25.55,-27.06 50.46,-27.06 6.96,-0.03 13.87,1.06 20.48,3.25l95.56 33.34 44.24 -97.04c6.15,-8.42 14.48,-15.04 24.13,-19.08 9.62,-4.02 20.16,-5.36 30.47,-3.84l78.65 6.25 200.96 -174.71c4.47,-3.4 9.71,-5.65 15.24,-6.53 5.52,-0.88 11.19,-0.38 16.51,1.48 10.09,3.87 11.87,12.2 4.48,18.73l-200.97 174.74c-13.55,10.33 -30.53,15.1 -47.49,13.4l-78.65 -6.24 -44.24 97.03c-1.61,3.24 -3.84,6.18 -6.52,8.61 -8.81,6.81 -19.15,11.36 -30.09,13.28 -10.96,1.93 -22.23,1.15 -32.81,-2.25l-95.6 -33.35 -32.62 159.85z"/>
   <path class="fil4" d="M3877.53 763.75c21.45,35.01 10.55,80.85 -24.36,102.37l-2559.35 1578.16c-34.95,21.51 -80.61,10.59 -102.1,-24.41 -21.43,-35.04 -10.55,-80.86 24.36,-102.37l2559.36 -1578.16c34.9,-21.52 80.61,-10.59 102.09,24.41z"/>
   <path class="fil4" d="M3664.7 1154.06c21.41,35.06 10.43,80.85 -24.53,102.34l-1771.02 1087.6c-34.97,21.49 -80.65,10.47 -102.06,-24.59 -21.38,-35.03 -10.4,-80.86 24.54,-102.31l1771.05 -1087.64c34.93,-21.45 80.64,-10.44 102.02,24.6z"/>
  </g>
 </g>
</svg>
